<?xml version="1.0" encoding="UTF-8"?>
<svg width="20px" height="20px" viewBox="0 0 20 20" version="1.1" xmlns="http://www.w3.org/2000/svg" xmlns:xlink="http://www.w3.org/1999/xlink">
    <!-- Generator: Sketch 42 (36781) - http://www.bohemiancoding.com/sketch -->
    <title>Shape</title>
    <desc>Created with Sketch.</desc>
    <defs></defs>
    <g id="Page-1" stroke="none" stroke-width="1" fill="none" fill-rule="evenodd">
        <g id="Artboard-Copy-2" transform="translate(-472.000000, -234.000000)" fill-rule="nonzero" fill="#4A4A4A">
            <g id="Chrome-Extension" transform="translate(265.000000, 187.000000)">
                <g id="Settings" transform="translate(207.000000, 47.000000)">
                    <path d="M17.1393877,11 C17.1393877,10.7 17.2393877,10.3 17.2393877,10 C17.2393877,9.7 17.2393877,9.3 17.1393877,9 L19.2393877,7.5 C19.4393877,7.4 19.5393877,7.1 19.3393877,6.8 L17.3393877,3.3 C17.2393877,3 16.9393877,2.9 16.7393877,3 L14.3393877,4.1 C13.8393877,3.7 13.1393877,3.3 12.5393877,3.1 L12.2393877,0.5 C12.2393877,0.2 12.0393877,0 11.7393877,0 L7.73938769,0 C7.43938769,0 7.23938769,0.2 7.23938769,0.5 L6.93938769,3 C6.23938769,3.3 5.63938769,3.6 5.13938769,4 L2.73938769,3 C2.53938769,2.9 2.23938769,3 2.13938769,3.2 L0.139387691,6.7 C-0.0606123087,7 -0.0606123087,7.3 0.239387691,7.4 L2.33938769,9 C2.33938769,9.3 2.23938769,9.7 2.23938769,10 C2.23938769,10.3 2.23938769,10.7 2.33938769,11 L0.239387691,12.5 C0.0393876913,12.6 -0.0606123087,12.9 0.139387691,13.2 L2.13938769,16.7 C2.23938769,17 2.53938769,17.1 2.73938769,17 L5.13938769,15.9 C5.63938769,16.3 6.33938769,16.7 6.93938769,16.9 L7.23938769,19.5 C7.23938769,19.8 7.43938769,20 7.73938769,20 L11.7393877,20 C12.0393877,20 12.2393877,19.8 12.2393877,19.5 L12.5393877,16.9 C13.2393877,16.6 13.8393877,16.3 14.3393877,15.9 L16.7393877,17 C16.9393877,17.1 17.2393877,17 17.3393877,16.8 L19.3393877,13.3 C19.4393877,13.1 19.4393877,12.8 19.2393877,12.6 L17.1393877,11 Z M9.73938769,14 C7.53938769,14 5.73938769,12.2 5.73938769,10 C5.73938769,7.8 7.53938769,6 9.73938769,6 C11.9393877,6 13.7393877,7.8 13.7393877,10 C13.7393877,12.2 11.9393877,14 9.73938769,14 Z" id="Shape"></path>
                </g>
            </g>
        </g>
    </g>
</svg>